<svg xmlns="http://www.w3.org/2000/svg" width="824.862" height="90" viewBox="0 0 824.862 90">
  <path id="Path_3044" data-name="Path 3044" d="M1249.591,5.858l8.78-7.434L1269.4-5.729l772.049.319s7.7,2.4,12.1,6.709,5.278,4.073,9.239,12.22,3.3,11.5,3.3,11.5V58.091s-50.076,48.867-103.645,13.076S1879.051,98,1818.477,67.8s-64.406,19.377-125.024,12.731-39.24-45.551-145.23-37.818c-33.165,3.188-83.851,36.036-135.06,17.311-26.782-9.793-61.966-3.03-97.055,3.942s-62.163,3.834-74.762,3.834c0-71.516-.171,15.485,0,0s.814-44,.969-44.932,3.894-11.747,3.894-11.747Z" transform="translate(-1241.269 5.729)" fill="#201e1e" opacity="0.62"/>
</svg>
