<svg xmlns="http://www.w3.org/2000/svg" xmlns:xlink="http://www.w3.org/1999/xlink" width="66" height="64" viewBox="0 0 66 64">
  <defs>
    <filter id="Rectangle_2166" x="4" y="5" width="59" height="57" filterUnits="userSpaceOnUse">
      <feOffset dy="3" input="SourceAlpha"/>
      <feGaussianBlur stdDeviation="3" result="blur"/>
      <feFlood flood-opacity="0.161"/>
      <feComposite operator="in" in2="blur"/>
      <feComposite in="SourceGraphic"/>
    </filter>
    <filter id="Polygon_29" x="10" y="20" width="35" height="34" filterUnits="userSpaceOnUse">
      <feOffset dy="3" input="SourceAlpha"/>
      <feGaussianBlur stdDeviation="3" result="blur-2"/>
      <feFlood flood-opacity="0.161"/>
      <feComposite operator="in" in2="blur-2"/>
      <feComposite in="SourceGraphic"/>
    </filter>
    <filter id="Ellipse_146" x="0" y="0" width="66" height="64" filterUnits="userSpaceOnUse">
      <feOffset dy="3" input="SourceAlpha"/>
      <feGaussianBlur stdDeviation="3" result="blur-3"/>
      <feFlood flood-opacity="0.161"/>
      <feComposite operator="in" in2="blur-3"/>
      <feComposite in="SourceGraphic"/>
    </filter>
  </defs>
  <g id="Component_101_12" data-name="Component 101 – 12" transform="translate(9 6)">
    <g id="Component_100_1" data-name="Component 100 – 1" transform="translate(4 5)">
      <g transform="matrix(1, 0, 0, 1, -13, -11)" filter="url(#Rectangle_2166)">
        <rect id="Rectangle_2166-2" data-name="Rectangle 2166" width="41" height="39" rx="19.5" transform="translate(13 11)" fill="#fff"/>
      </g>
      <g transform="matrix(1, 0, 0, 1, -13, -11)" filter="url(#Polygon_29)">
        <path id="Polygon_29-2" data-name="Polygon 29" d="M8.5,0,17,16H0Z" transform="translate(36 42) rotate(180)" fill="#fff"/>
      </g>
      <text id="Add_more_details" data-name="Add more details" transform="translate(9 18)" fill="#21282a" font-size="3" font-family="NirmalaUI, Nirmala UI"><tspan x="0" y="0">Add more details</tspan></text>
    </g>
    <g id="Group_1917" data-name="Group 1917" transform="translate(-1310 -1471)">
      <g transform="matrix(1, 0, 0, 1, 1301, 1465)" filter="url(#Ellipse_146)">
        <ellipse id="Ellipse_146-2" data-name="Ellipse 146" cx="24" cy="23" rx="24" ry="23" transform="translate(9 6)" fill="#fff"/>
      </g>
      <g id="Group_1912" data-name="Group 1912" transform="translate(3 -1)">
        <circle id="Ellipse_147" data-name="Ellipse 147" cx="1.5" cy="1.5" r="1.5" transform="translate(1319 1487)" fill="#616161"/>
        <line id="Line_75" data-name="Line 75" x2="18" transform="translate(1326.5 1488.5)" fill="none" stroke="#707070" stroke-linecap="round" stroke-width="3"/>
      </g>
      <g id="Group_1913" data-name="Group 1913" transform="translate(3 5)">
        <circle id="Ellipse_147-2" data-name="Ellipse 147" cx="1.5" cy="1.5" r="1.5" transform="translate(1319 1487)" fill="#616161"/>
        <line id="Line_75-2" data-name="Line 75" x2="18" transform="translate(1326.5 1488.5)" fill="none" stroke="#707070" stroke-linecap="round" stroke-width="3"/>
      </g>
      <g id="Group_1915" data-name="Group 1915" transform="translate(3 11)">
        <circle id="Ellipse_147-3" data-name="Ellipse 147" cx="1.5" cy="1.5" r="1.5" transform="translate(1319 1487)" fill="#616161"/>
        <path id="Path_3036" data-name="Path 3036" d="M0,0H8.668" transform="translate(1326.832 1488.5)" fill="none" stroke="#707070" stroke-linecap="round" stroke-width="3"/>
      </g>
    </g>
  </g>
</svg>
