<svg xmlns="http://www.w3.org/2000/svg" width="824.131" height="90" viewBox="0 0 824.131 90">
  <path id="Path_3045" data-name="Path 3045" d="M1249.584,5.858a36.2,36.2,0,0,1,8.645-7.474,41.139,41.139,0,0,1,11.151-4.113l771.365.319s7.691,2.4,12.087,6.709,5.273,4.073,9.23,12.22,3.3,11.5,3.3,11.5V58.091s-50.031,48.867-103.553,13.076S1878.485,98,1817.965,67.8s-64.349,19.377-124.913,12.731-39.205-45.551-145.1-37.818c-33.136,3.188-83.777,36.036-134.94,17.311-26.758-9.793-61.911-3.03-96.969,3.942s-62.108,3.834-74.7,3.834c0-71.516-.171,15.485,0,0s-.154-44.755,0-45.69,4.123-10.544,4.123-11.263S1249.584,5.858,1249.584,5.858Z" transform="translate(-1241.269 5.729)" fill="#ab1010" opacity="0.64"/>
</svg>
