<svg id="svg" version="1.1" xmlns="http://www.w3.org/2000/svg" xmlns:xlink="http://www.w3.org/1999/xlink" width="400"
     height="286.95652173913044" viewBox="0, 0, 400,286.95652173913044">
    <g id="svgg">
        <path id="path0"
              d="M2.707 6.461 C 2.708 10.093,2.749 11.540,2.799 9.675 C 2.849 7.810,2.849 4.838,2.799 3.071 C 2.748 1.303,2.707 2.828,2.707 6.461 M3.159 6.557 C 3.159 13.302,3.103 13.742,2.324 13.135 C 1.922 12.821,1.913 12.837,2.250 13.268 C 2.808 13.980,2.421 14.358,1.132 14.358 L 0.000 14.358 0.000 39.052 L 0.000 63.747 0.861 63.747 C 1.335 63.747,1.723 63.884,1.723 64.051 C 1.723 64.219,1.852 64.276,2.010 64.178 C 2.168 64.080,2.313 64.137,2.333 64.305 C 2.353 64.472,2.401 64.738,2.441 64.896 C 2.480 65.054,2.557 67.864,2.611 71.141 L 2.710 77.100 2.879 71.213 L 3.047 65.327 3.031 71.545 C 3.021 75.261,3.121 77.698,3.279 77.600 C 3.427 77.508,3.457 77.661,3.347 77.949 C 3.189 78.359,3.266 78.431,3.729 78.310 C 4.047 78.227,4.323 78.276,4.343 78.419 C 4.363 78.562,4.395 78.798,4.415 78.942 C 4.435 79.087,4.568 79.313,4.712 79.445 C 4.863 79.582,4.891 79.540,4.779 79.345 C 4.389 78.664,5.120 78.705,5.568 79.389 C 5.944 79.963,6.030 80.948,6.030 84.664 C 6.030 88.375,6.111 89.300,6.461 89.591 C 6.698 89.787,6.892 90.191,6.892 90.487 C 6.892 90.784,7.009 91.027,7.152 91.027 C 7.295 91.027,7.341 90.736,7.254 90.380 L 7.096 89.734 7.711 90.424 C 8.050 90.804,8.329 90.998,8.332 90.855 C 8.334 90.713,8.466 90.790,8.625 91.027 C 8.783 91.263,8.887 92.134,8.855 92.961 C 8.823 93.787,8.885 94.552,8.993 94.660 C 9.297 94.964,9.223 95.621,8.885 95.621 C 8.717 95.621,8.673 95.472,8.785 95.289 C 8.915 95.079,8.864 95.036,8.645 95.171 C 8.376 95.338,8.376 95.478,8.647 95.804 C 8.899 96.107,9.051 96.131,9.199 95.891 C 9.430 95.519,10.625 95.790,10.625 96.215 C 10.625 96.362,10.805 96.482,11.025 96.482 C 11.805 96.482,12.162 102.319,11.470 103.752 C 11.190 104.332,11.198 104.340,11.585 103.861 C 11.814 103.577,12.048 103.447,12.103 103.574 C 12.159 103.701,12.691 104.169,13.286 104.613 C 13.881 105.058,14.294 105.542,14.202 105.690 C 14.111 105.838,14.184 105.958,14.365 105.958 C 14.588 105.958,14.663 106.552,14.597 107.798 C 14.544 108.810,14.587 109.585,14.692 109.519 C 14.797 109.454,14.926 109.498,14.979 109.618 C 15.032 109.737,15.463 110.056,15.937 110.327 C 16.411 110.597,16.779 111.026,16.755 111.280 C 16.729 111.558,16.866 111.682,17.099 111.592 C 17.529 111.427,17.960 112.391,17.835 113.240 C 17.787 113.567,17.879 113.699,18.072 113.579 C 18.245 113.472,18.313 113.264,18.222 113.117 C 17.935 112.654,18.493 112.839,19.239 113.456 C 19.634 113.782,19.808 113.973,19.625 113.880 C 19.384 113.757,19.337 114.200,19.452 115.506 C 19.539 116.493,19.722 117.344,19.857 117.397 C 19.993 117.450,20.029 117.615,19.937 117.763 C 19.846 117.912,19.942 117.997,20.151 117.954 C 20.360 117.911,20.499 118.037,20.459 118.234 C 20.420 118.431,20.549 118.561,20.747 118.521 C 20.944 118.482,21.070 118.621,21.027 118.830 C 20.983 119.039,21.079 119.129,21.240 119.029 C 21.658 118.771,22.269 119.223,22.300 119.813 C 22.375 121.268,22.397 121.335,22.663 120.916 C 22.804 120.694,22.852 120.306,22.771 120.055 C 22.690 119.804,22.875 119.987,23.183 120.463 C 23.490 120.938,24.214 121.649,24.791 122.042 C 25.813 122.739,25.900 122.867,25.959 123.762 C 25.975 123.999,26.117 124.210,26.275 124.231 C 27.264 124.364,27.879 124.718,27.519 124.946 C 27.217 125.137,27.233 125.190,27.594 125.193 C 28.097 125.198,29.363 126.186,29.266 126.498 C 29.148 126.880,29.959 127.727,30.313 127.591 C 30.699 127.443,31.177 128.506,31.045 129.218 C 30.980 129.563,31.037 129.577,31.333 129.289 C 31.536 129.092,31.826 128.930,31.979 128.930 C 32.132 128.930,32.175 129.012,32.075 129.112 C 31.975 129.211,32.016 129.521,32.165 129.799 C 32.357 130.159,32.312 130.408,32.011 130.658 C 31.778 130.852,31.587 131.138,31.587 131.295 C 31.587 131.451,31.834 131.273,32.136 130.900 C 32.438 130.528,32.790 130.326,32.917 130.454 C 33.045 130.581,32.998 130.778,32.814 130.892 C 32.620 131.012,32.576 131.257,32.710 131.475 C 32.881 131.751,32.986 131.684,33.107 131.223 L 33.271 130.595 33.902 131.183 C 34.291 131.545,34.477 131.983,34.388 132.324 C 34.273 132.767,34.365 132.851,34.853 132.746 C 35.350 132.638,35.383 132.671,35.032 132.921 C 34.685 133.169,34.757 133.230,35.405 133.233 C 36.029 133.237,36.305 133.446,36.641 134.171 C 36.906 134.743,37.023 134.854,36.941 134.458 C 36.865 134.084,36.926 133.884,37.087 133.983 C 37.397 134.175,38.022 135.559,37.950 135.894 C 37.925 136.012,38.001 136.084,38.119 136.052 C 38.613 135.922,39.627 136.467,39.627 136.863 C 39.627 137.099,39.745 137.219,39.889 137.129 C 40.033 137.040,40.323 137.356,40.533 137.830 C 40.744 138.305,41.021 138.693,41.149 138.693 C 41.278 138.693,41.291 138.843,41.179 139.025 C 41.052 139.230,41.100 139.279,41.305 139.152 C 41.487 139.039,41.927 139.165,42.282 139.430 C 42.856 139.858,42.864 139.892,42.355 139.733 C 41.852 139.576,41.837 139.598,42.236 139.913 C 42.487 140.111,42.634 140.467,42.562 140.704 C 42.482 140.971,42.615 140.917,42.916 140.560 C 43.386 140.001,43.394 140.009,43.227 140.847 C 43.130 141.333,43.158 141.556,43.291 141.358 C 43.465 141.100,43.729 141.195,44.292 141.717 C 44.929 142.307,45.346 142.426,46.772 142.426 C 48.565 142.426,49.348 142.949,49.829 144.464 C 49.926 144.769,50.101 144.960,50.217 144.888 C 50.530 144.695,51.867 145.875,52.614 147.005 C 53.238 147.950,53.338 147.991,54.846 147.932 C 55.715 147.898,56.587 147.978,56.785 148.110 C 57.401 148.518,58.568 150.252,58.404 150.517 C 58.319 150.655,58.355 150.749,58.485 150.727 C 59.129 150.615,59.486 150.795,59.346 151.160 C 59.225 151.475,59.563 151.588,60.858 151.662 C 62.113 151.735,62.492 151.669,62.387 151.397 C 62.296 151.160,62.408 151.096,62.710 151.212 C 63.203 151.401,63.312 151.899,62.958 152.347 C 62.839 152.497,62.865 152.523,63.015 152.405 C 63.527 152.001,64.034 152.188,64.034 152.781 C 64.034 153.106,64.164 153.292,64.322 153.195 C 64.480 153.097,64.609 153.163,64.609 153.342 C 64.609 154.218,65.448 154.487,68.178 154.487 C 70.435 154.487,70.926 154.409,70.926 154.054 C 70.926 153.742,71.168 153.836,71.788 154.388 C 72.895 155.375,73.034 157.718,72.053 158.834 C 71.725 159.207,71.533 159.359,71.627 159.173 C 71.720 158.986,71.666 158.752,71.505 158.653 C 71.239 158.489,71.085 158.875,71.185 159.459 C 71.208 159.587,70.707 159.910,70.074 160.177 L 68.922 160.660 68.919 162.312 C 68.917 163.316,69.039 163.963,69.230 163.963 C 69.431 163.963,69.508 163.394,69.445 162.383 C 69.391 161.514,69.444 160.803,69.562 160.804 C 69.880 160.804,69.824 163.626,69.494 164.243 C 69.155 164.877,67.189 166.142,66.712 166.034 C 66.527 165.992,66.294 166.089,66.195 166.249 C 66.089 166.420,66.198 166.470,66.460 166.369 C 66.835 166.226,66.906 166.494,66.906 168.048 C 66.906 170.095,65.835 171.673,64.828 171.109 C 64.508 170.930,64.397 170.989,64.426 171.327 C 64.448 171.583,64.222 171.830,63.925 171.877 C 63.628 171.925,63.240 172.120,63.064 172.312 C 62.823 172.573,62.833 172.610,63.101 172.459 C 63.368 172.308,63.473 172.683,63.508 173.924 L 63.557 175.592 63.747 173.869 L 63.938 172.146 63.986 173.787 C 64.033 175.366,63.397 176.438,62.780 175.821 C 62.680 175.722,62.599 175.780,62.599 175.951 C 62.599 176.122,62.760 176.328,62.958 176.408 C 63.389 176.583,62.635 177.219,62.171 177.072 C 61.494 176.857,61.072 177.823,61.130 179.453 C 61.184 180.942,61.117 181.156,60.459 181.587 C 60.056 181.851,59.727 182.243,59.727 182.460 C 59.727 182.676,59.519 182.933,59.265 183.031 C 58.929 183.160,58.849 183.085,58.974 182.759 C 59.073 182.501,59.026 182.385,58.862 182.486 C 58.706 182.582,58.579 182.912,58.579 183.219 C 58.579 183.525,58.482 183.776,58.363 183.775 C 58.245 183.775,58.189 185.141,58.239 186.810 C 58.337 190.113,58.329 190.135,56.560 191.536 L 55.491 192.383 55.565 191.511 C 55.655 190.453,55.344 190.661,55.200 191.755 C 55.144 192.184,54.976 192.657,54.828 192.807 C 54.472 193.168,54.479 195.836,54.837 195.836 C 54.990 195.836,55.041 196.029,54.950 196.265 C 54.860 196.501,54.683 196.631,54.559 196.554 C 54.434 196.477,54.258 196.607,54.167 196.843 C 53.950 197.407,52.863 197.229,52.364 196.547 C 52.010 196.063,51.974 196.059,51.974 196.508 C 51.974 196.780,52.168 197.077,52.405 197.168 C 52.884 197.352,53.000 198.134,52.548 198.134 C 52.374 198.134,52.261 199.378,52.261 201.292 C 52.261 205.561,51.707 205.498,51.626 201.220 L 51.565 197.990 51.472 201.107 C 51.406 203.337,51.485 204.354,51.749 204.680 C 51.990 204.978,52.000 205.065,51.779 204.932 C 51.592 204.820,51.358 204.860,51.259 205.020 C 51.160 205.181,51.223 205.312,51.400 205.312 C 51.576 205.312,51.645 205.436,51.551 205.587 C 51.458 205.738,51.171 205.781,50.913 205.682 C 50.572 205.551,50.509 205.607,50.682 205.887 C 50.855 206.167,50.791 206.222,50.445 206.089 C 50.184 205.989,50.002 206.023,50.039 206.164 C 50.077 206.305,49.849 206.633,49.533 206.893 C 49.218 207.152,49.088 207.303,49.246 207.227 C 49.431 207.138,49.501 208.154,49.443 210.077 C 49.328 213.884,48.866 213.961,48.738 210.193 L 48.640 207.321 48.656 210.265 C 48.668 212.539,48.574 213.294,48.241 213.584 C 47.878 213.899,47.909 213.911,48.438 213.655 C 49.367 213.207,49.540 213.285,48.980 213.904 C 48.653 214.265,48.233 214.409,47.758 214.323 C 46.815 214.152,46.095 214.709,46.550 215.257 C 46.794 215.551,46.791 215.650,46.537 215.650 C 46.350 215.650,46.277 215.779,46.375 215.937 C 46.472 216.095,46.362 216.224,46.128 216.224 C 45.895 216.224,45.662 216.093,45.609 215.933 C 45.556 215.773,45.555 217.677,45.606 220.164 C 45.657 222.652,45.823 224.837,45.975 225.020 C 46.446 225.587,44.550 227.086,43.884 226.674 C 43.691 226.555,43.637 226.600,43.751 226.784 C 43.857 226.956,43.844 227.157,43.723 227.232 C 43.602 227.307,43.568 234.099,43.647 242.327 C 43.728 250.760,43.681 257.287,43.540 257.287 C 43.402 257.286,43.444 257.473,43.633 257.700 C 43.821 257.928,44.130 258.055,44.319 257.982 C 44.507 257.910,45.112 258.235,45.662 258.705 C 46.403 259.339,46.532 259.563,46.159 259.572 C 45.484 259.588,45.403 262.455,46.077 262.455 C 46.721 262.455,47.099 263.375,46.730 264.042 C 46.452 264.545,46.469 264.566,46.884 264.226 C 48.214 263.139,49.477 264.833,49.356 267.542 C 49.292 268.985,49.362 269.471,49.628 269.415 C 50.110 269.313,51.113 269.868,51.113 270.235 C 51.113 270.397,51.005 270.463,50.873 270.381 C 50.742 270.300,50.634 270.409,50.634 270.624 C 50.634 270.839,50.806 270.949,51.017 270.868 C 51.228 270.787,51.400 270.581,51.400 270.410 C 51.400 270.239,51.583 270.349,51.807 270.655 C 52.076 271.023,52.120 271.325,51.936 271.546 C 51.756 271.763,51.765 271.945,51.960 272.066 C 52.126 272.168,52.261 272.099,52.261 271.913 C 52.261 271.660,52.371 271.665,52.692 271.931 C 53.279 272.419,53.236 272.817,52.620 272.586 C 52.174 272.419,52.163 272.454,52.527 272.900 C 52.891 273.348,52.964 273.354,53.186 272.956 C 53.567 272.275,54.596 273.070,55.389 274.659 C 55.744 275.369,56.098 275.951,56.175 275.951 C 56.252 275.951,56.239 275.827,56.145 275.676 C 56.052 275.525,56.315 275.577,56.729 275.792 C 57.607 276.248,58.973 278.130,58.721 278.537 C 58.624 278.694,58.743 278.741,58.994 278.645 C 59.240 278.551,59.440 278.617,59.440 278.792 C 59.440 278.986,60.061 279.110,61.036 279.110 C 62.015 279.110,62.565 279.000,62.457 278.826 C 62.078 278.212,63.165 278.911,63.583 279.550 C 64.057 280.273,63.915 280.521,63.100 280.390 C 62.820 280.345,62.675 280.437,62.775 280.598 C 62.873 280.757,63.264 280.827,63.644 280.755 C 64.024 280.682,64.417 280.754,64.516 280.916 C 64.616 281.077,64.557 281.122,64.386 281.016 C 64.214 280.910,63.980 280.987,63.865 281.187 C 63.749 281.387,63.763 281.453,63.894 281.334 C 64.025 281.215,64.410 281.300,64.749 281.522 C 65.152 281.786,66.431 281.961,68.436 282.025 C 70.125 282.080,71.376 282.082,71.216 282.029 C 71.057 281.977,70.926 281.807,70.926 281.653 C 70.926 281.171,71.523 281.717,71.805 282.457 C 71.967 282.885,72.205 283.083,72.406 282.959 C 72.600 282.839,72.660 282.879,72.551 283.055 C 72.449 283.221,72.566 283.434,72.812 283.529 C 73.058 283.623,73.184 283.823,73.091 283.972 C 72.987 284.141,75.886 284.254,80.722 284.269 C 88.561 284.294,89.187 284.344,88.833 284.917 C 88.715 285.109,88.775 285.146,88.991 285.012 C 89.437 284.737,90.144 285.642,90.156 286.504 L 90.165 287.150 97.200 287.150 L 104.235 287.150 104.245 286.504 C 104.257 285.604,105.083 284.476,105.126 285.300 C 105.148 285.729,105.200 285.692,105.354 285.140 L 105.553 284.422 113.245 284.279 C 120.516 284.143,120.960 284.103,121.360 283.561 C 121.593 283.245,121.996 283.030,122.255 283.084 C 122.643 283.164,122.663 283.105,122.368 282.750 C 121.776 282.037,122.467 281.876,125.786 281.953 C 128.354 282.012,128.881 281.950,129.026 281.572 C 129.121 281.323,129.397 281.120,129.639 281.120 C 129.881 281.120,130.079 280.983,130.079 280.816 C 130.079 280.649,130.207 280.591,130.363 280.687 C 130.521 280.785,130.576 280.679,130.487 280.447 C 130.398 280.214,130.588 279.848,130.919 279.616 C 131.245 279.388,131.458 279.149,131.393 279.084 C 131.327 279.019,132.615 279.010,134.254 279.064 L 137.234 279.161 138.170 278.287 C 138.848 277.653,139.173 277.507,139.349 277.758 C 139.495 277.966,139.520 277.846,139.411 277.459 C 139.304 277.079,139.355 276.813,139.536 276.813 C 139.704 276.813,139.810 276.651,139.770 276.454 C 139.717 276.189,140.187 276.119,141.565 276.186 C 143.288 276.270,143.473 276.221,143.974 275.540 C 144.273 275.134,144.700 274.803,144.924 274.803 C 145.148 274.803,145.252 274.673,145.154 274.515 C 144.860 274.040,145.326 273.529,145.640 273.982 C 145.824 274.248,145.848 274.153,145.714 273.682 C 145.557 273.126,145.608 273.027,145.979 273.169 C 146.258 273.277,146.413 273.209,146.371 272.998 C 146.334 272.806,146.478 272.686,146.692 272.731 C 146.906 272.776,147.256 272.668,147.469 272.491 C 147.683 272.314,148.024 272.254,148.229 272.358 C 148.433 272.463,148.379 272.366,148.109 272.144 C 147.649 271.766,147.648 271.695,148.095 271.046 C 148.953 269.801,149.379 269.612,151.090 269.714 C 152.700 269.810,152.725 269.799,153.387 268.731 C 153.910 267.887,154.202 267.676,154.725 267.766 C 155.262 267.859,155.330 267.804,155.070 267.491 C 154.869 267.249,154.851 267.036,155.023 266.930 C 155.175 266.836,155.359 266.921,155.433 267.120 C 155.509 267.324,155.703 267.138,155.881 266.691 C 156.054 266.256,156.335 265.901,156.507 265.901 C 156.678 265.901,156.738 265.772,156.640 265.614 C 156.543 265.456,156.664 265.327,156.911 265.327 C 157.157 265.327,157.343 265.230,157.324 265.111 C 157.229 264.508,157.417 264.198,157.991 264.016 C 158.768 263.769,159.234 263.322,159.480 262.585 C 159.583 262.277,160.125 261.701,160.684 261.307 C 161.243 260.912,161.870 260.433,162.079 260.243 C 162.288 260.053,162.545 259.985,162.651 260.091 C 162.758 260.197,162.751 260.041,162.637 259.743 C 162.492 259.367,162.532 259.265,162.765 259.410 C 162.979 259.542,163.101 259.409,163.101 259.046 C 163.101 258.345,163.850 258.080,165.539 258.184 C 166.241 258.227,166.906 258.172,167.016 258.062 C 167.127 257.951,167.357 257.863,167.528 257.865 C 167.699 257.868,167.645 258.007,167.408 258.174 C 167.028 258.443,167.028 258.465,167.407 258.362 C 167.643 258.297,167.837 257.997,167.838 257.694 C 167.839 257.389,168.009 257.178,168.219 257.222 C 168.429 257.265,168.525 257.180,168.434 257.032 C 168.173 256.609,168.574 255.851,169.059 255.851 C 169.301 255.851,169.684 255.625,169.911 255.348 C 170.137 255.072,170.241 255.007,170.141 255.205 C 170.041 255.402,170.022 255.564,170.098 255.564 C 170.502 255.564,171.142 253.565,171.146 252.289 C 171.151 250.868,172.238 249.098,172.775 249.636 C 173.010 249.871,173.760 249.247,173.584 248.963 C 173.510 248.843,173.756 248.413,174.132 248.008 C 174.507 247.603,174.742 247.199,174.653 247.110 C 174.564 247.022,174.676 246.949,174.901 246.949 C 176.861 246.949,177.677 242.898,176.052 241.235 C 175.593 240.767,175.156 240.446,175.079 240.523 C 174.755 240.846,173.725 239.113,174.025 238.750 C 174.240 238.492,174.228 238.324,173.982 238.172 C 173.763 238.037,173.712 238.080,173.842 238.290 C 174.171 238.822,173.621 238.674,172.674 237.976 C 171.818 237.344,171.716 237.198,171.716 236.612 C 171.716 236.454,171.531 236.324,171.304 236.324 C 171.078 236.324,170.811 236.066,170.711 235.750 C 170.610 235.434,170.336 235.176,170.100 235.176 C 169.865 235.176,169.741 235.064,169.826 234.927 C 169.973 234.688,168.903 233.521,168.670 233.668 C 168.308 233.898,167.983 233.665,167.983 233.176 C 167.983 232.569,167.057 231.905,166.682 232.243 C 166.557 232.356,166.529 232.317,166.619 232.158 C 166.709 231.998,166.601 231.618,166.378 231.313 C 166.109 230.945,165.973 230.892,165.973 231.156 C 165.973 231.421,165.833 231.367,165.551 230.995 C 165.306 230.671,165.122 229.776,165.111 228.859 C 165.094 227.403,164.566 226.054,164.169 226.451 C 163.875 226.745,162.721 225.452,162.671 224.773 C 162.645 224.414,162.504 224.118,162.360 224.115 C 161.438 224.095,160.222 222.970,160.722 222.598 C 161.181 222.256,161.153 222.236,160.458 222.407 C 159.789 222.571,159.654 222.493,159.493 221.851 C 159.390 221.441,159.188 221.106,159.044 221.106 C 158.900 221.106,158.843 220.772,158.917 220.365 C 159.029 219.747,158.983 219.681,158.639 219.967 C 158.412 220.155,158.305 220.437,158.402 220.594 C 158.498 220.750,158.239 220.656,157.824 220.384 C 157.410 220.113,157.071 219.640,157.071 219.333 C 157.071 219.026,156.948 218.850,156.798 218.943 C 156.526 219.111,155.834 218.131,156.064 217.901 C 156.130 217.835,155.902 217.759,155.557 217.733 C 154.857 217.680,154.118 216.851,154.314 216.340 C 154.384 216.157,154.225 216.024,153.961 216.044 C 153.632 216.069,153.513 215.900,153.581 215.506 C 153.635 215.190,153.585 215.025,153.469 215.140 C 153.220 215.385,151.615 214.497,151.615 214.114 C 151.615 213.969,151.345 213.616,151.015 213.330 C 150.664 213.026,150.503 212.664,150.628 212.462 C 150.746 212.271,150.724 212.188,150.580 212.278 C 150.199 212.513,149.226 211.724,149.450 211.362 C 149.554 211.193,149.438 211.055,149.191 211.055 C 148.945 211.055,148.742 210.894,148.739 210.696 C 148.736 210.457,148.642 210.481,148.457 210.768 C 148.235 211.111,148.177 211.118,148.174 210.801 C 148.171 210.582,147.846 210.104,147.452 209.738 C 147.057 209.372,146.734 208.932,146.734 208.759 C 146.734 208.587,146.508 208.484,146.231 208.530 C 145.868 208.591,145.756 208.455,145.828 208.040 C 145.882 207.724,145.836 207.555,145.725 207.664 C 145.328 208.055,144.754 207.213,145.111 206.765 C 145.364 206.448,145.360 206.400,145.093 206.560 C 144.488 206.923,142.318 205.359,142.733 204.858 C 143.019 204.513,142.997 204.470,142.611 204.619 C 142.294 204.740,142.139 204.648,142.139 204.338 C 142.139 204.084,142.002 203.877,141.835 203.877 C 141.668 203.877,141.623 203.727,141.736 203.545 C 141.859 203.347,141.815 203.291,141.628 203.407 C 141.456 203.513,140.997 203.283,140.609 202.894 C 140.221 202.506,139.806 202.278,139.687 202.386 C 139.568 202.495,139.542 202.293,139.629 201.938 C 139.717 201.582,139.689 201.353,139.567 201.429 C 139.444 201.504,139.113 201.310,138.831 200.998 C 138.422 200.547,137.945 200.431,136.495 200.431 C 134.073 200.431,133.787 199.600,136.181 199.518 L 137.688 199.466 136.302 199.357 C 135.540 199.298,134.757 199.381,134.562 199.542 C 134.211 199.834,133.238 199.033,133.238 198.453 C 133.238 198.316,133.045 198.044,132.810 197.849 C 132.575 197.654,132.452 197.381,132.538 197.243 C 132.623 197.105,132.506 197.063,132.277 197.151 C 131.884 197.302,130.653 196.273,130.653 195.793 C 130.653 195.068,131.991 194.401,133.445 194.401 C 135.343 194.401,137.184 193.712,136.735 193.171 C 136.088 192.391,136.821 192.050,138.928 192.150 C 141.288 192.262,141.335 191.902,138.981 191.742 L 137.401 191.635 139.151 191.582 C 140.485 191.542,141.024 191.394,141.415 190.962 C 141.698 190.649,142.039 190.462,142.174 190.546 C 142.309 190.629,142.335 190.476,142.231 190.205 C 142.102 189.870,142.150 189.779,142.378 189.920 C 142.592 190.052,142.714 189.916,142.714 189.541 C 142.714 188.821,143.587 188.563,145.551 188.701 C 146.333 188.756,146.952 188.720,146.925 188.620 C 146.899 188.521,147.239 188.101,147.682 187.687 C 148.124 187.273,148.415 186.935,148.328 186.935 C 148.241 186.935,148.460 186.644,148.816 186.289 C 149.171 185.933,149.559 185.675,149.677 185.714 C 149.795 185.754,149.892 185.657,149.892 185.499 C 149.892 185.341,150.029 185.212,150.196 185.212 C 150.364 185.212,150.408 185.361,150.296 185.543 C 150.172 185.744,150.217 185.797,150.410 185.678 C 150.585 185.569,150.665 185.315,150.588 185.113 C 150.279 184.308,151.595 183.632,153.474 183.632 C 154.795 183.632,155.237 183.537,155.136 183.274 C 154.956 182.801,152.432 182.801,151.902 183.274 C 151.559 183.579,151.556 183.557,151.880 183.130 C 152.303 182.570,156.124 182.356,155.781 182.911 C 155.678 183.077,155.801 183.120,156.075 183.015 C 156.455 182.869,156.471 182.783,156.162 182.566 C 155.862 182.355,155.857 182.265,156.138 182.151 C 156.335 182.071,156.497 181.815,156.497 181.582 C 156.497 181.348,156.625 181.237,156.781 181.333 C 156.937 181.430,156.995 181.327,156.909 181.104 C 156.708 180.579,157.900 180.123,159.901 179.960 C 160.747 179.891,161.539 179.673,161.661 179.475 C 161.835 179.194,161.917 179.202,162.039 179.508 C 162.145 179.774,162.202 179.733,162.217 179.380 C 162.232 179.044,162.366 178.937,162.599 179.076 C 162.807 179.201,162.778 179.070,162.529 178.765 C 162.133 178.277,162.149 178.253,162.745 178.442 C 163.137 178.566,163.388 178.526,163.388 178.340 C 163.388 178.171,163.263 178.033,163.110 178.033 C 162.696 178.033,163.077 177.242,163.586 177.047 C 163.895 176.929,163.977 177.008,163.860 177.312 C 163.768 177.551,163.819 177.746,163.972 177.746 C 164.125 177.746,164.250 177.572,164.250 177.360 C 164.250 177.147,164.573 176.598,164.967 176.139 C 165.362 175.681,165.685 175.212,165.685 175.097 C 165.685 174.983,166.362 174.434,167.189 173.877 C 168.016 173.320,168.526 172.864,168.321 172.864 C 168.116 172.864,168.030 172.733,168.129 172.572 C 168.228 172.412,168.428 172.354,168.574 172.444 C 168.719 172.534,168.754 172.388,168.650 172.118 C 168.494 171.713,168.587 171.661,169.195 171.814 C 169.778 171.960,169.920 171.895,169.889 171.498 C 169.860 171.128,170.062 171.001,170.662 171.011 C 171.388 171.023,171.422 170.985,170.977 170.660 C 170.519 170.325,170.517 170.281,170.954 170.114 C 171.215 170.013,171.429 169.718,171.429 169.457 C 171.429 169.196,171.687 168.821,172.003 168.624 C 172.343 168.411,172.577 168.383,172.577 168.555 C 172.577 168.924,175.165 168.926,175.736 168.557 C 175.973 168.404,176.071 168.277,175.954 168.274 C 175.683 168.269,176.501 167.253,177.554 166.288 C 178.344 165.564,178.579 165.320,180.538 163.199 C 181.116 162.573,181.602 162.276,181.830 162.408 C 182.032 162.524,182.110 162.523,182.005 162.405 C 181.736 162.105,182.667 161.082,183.015 161.297 C 183.178 161.398,183.227 161.283,183.128 161.027 C 182.998 160.687,183.105 160.617,183.582 160.729 C 184.128 160.857,184.152 160.826,183.773 160.481 C 183.534 160.264,183.386 160.111,183.444 160.141 C 183.680 160.262,185.083 158.946,186.217 157.542 C 186.778 156.847,187.254 156.520,187.581 156.603 C 187.858 156.673,188.012 156.613,187.923 156.470 C 187.835 156.327,187.971 156.210,188.227 156.210 C 188.508 156.210,188.610 156.077,188.484 155.874 C 188.340 155.641,188.446 155.597,188.826 155.731 C 189.337 155.910,189.341 155.897,188.877 155.536 C 188.603 155.322,188.462 155.065,188.564 154.963 C 188.665 154.862,188.917 154.918,189.122 155.089 C 189.412 155.330,189.470 155.266,189.382 154.805 C 189.319 154.479,189.356 154.224,189.465 154.239 C 189.977 154.312,190.457 154.181,190.290 154.013 C 190.188 153.911,190.341 153.620,190.632 153.367 C 190.922 153.114,191.255 152.607,191.370 152.241 C 191.505 151.814,191.732 151.632,192.001 151.735 C 192.231 151.823,192.363 151.800,192.292 151.684 C 192.077 151.329,192.798 150.848,193.470 150.898 C 194.003 150.937,194.047 150.875,193.750 150.507 C 193.468 150.159,193.469 150.113,193.754 150.285 C 194.027 150.449,194.116 150.031,194.123 148.545 C 194.134 146.389,194.577 145.544,195.979 145.011 C 196.405 144.849,196.821 144.460,196.903 144.146 C 196.985 143.832,197.166 143.575,197.306 143.575 C 197.445 143.575,197.559 143.372,197.559 143.125 C 197.559 142.796,197.733 142.724,198.205 142.857 C 198.666 142.986,198.737 142.959,198.454 142.763 C 197.966 142.426,198.885 141.839,199.537 142.072 C 199.781 142.158,199.858 142.088,199.736 141.890 C 199.483 141.479,200.432 139.842,200.923 139.842 C 201.126 139.842,201.292 139.713,201.292 139.555 C 201.292 139.397,201.440 139.268,201.620 139.268 C 202.453 139.268,203.530 137.609,203.631 136.170 C 203.687 135.377,203.636 134.787,203.518 134.861 C 203.399 134.934,203.302 134.785,203.302 134.530 C 203.302 134.274,203.420 134.138,203.565 134.227 C 203.709 134.317,203.882 134.227,203.949 134.029 C 204.042 133.752,204.198 133.769,204.619 134.099 C 205.116 134.488,205.134 134.486,204.811 134.071 C 204.377 133.515,205.318 132.456,205.917 132.826 C 206.162 132.977,206.216 132.900,206.091 132.575 C 205.992 132.317,206.093 131.923,206.316 131.701 C 206.538 131.478,206.652 131.228,206.569 131.144 C 206.486 131.061,206.718 130.899,207.085 130.784 C 207.453 130.670,207.818 130.496,207.897 130.399 C 207.976 130.302,208.291 130.084,208.597 129.915 C 209.063 129.658,209.142 129.340,209.079 127.981 C 208.991 126.071,209.212 125.197,209.782 125.197 C 210.009 125.197,210.194 125.066,210.194 124.905 C 210.194 124.732,210.504 124.690,210.955 124.803 C 211.495 124.939,211.656 124.898,211.509 124.660 C 211.396 124.477,211.153 124.419,210.969 124.533 C 210.785 124.646,210.923 124.373,211.276 123.925 C 211.770 123.297,211.917 122.732,211.917 121.461 C 211.917 120.261,212.049 119.705,212.401 119.418 C 212.831 119.068,212.863 119.088,212.681 119.598 C 212.557 119.946,212.771 119.803,213.224 119.236 C 213.636 118.722,214.071 118.361,214.192 118.436 C 214.313 118.510,214.439 117.714,214.473 116.665 C 214.558 114.031,215.580 112.533,216.673 113.439 C 216.966 113.683,217.085 113.688,217.085 113.459 C 217.085 113.282,216.955 113.137,216.796 113.137 C 216.621 113.137,216.644 112.917,216.853 112.581 C 217.044 112.276,217.279 112.074,217.375 112.134 C 217.472 112.193,217.498 111.507,217.433 110.608 C 217.302 108.768,218.135 107.184,219.050 107.535 C 219.302 107.632,219.423 107.626,219.318 107.521 C 219.213 107.416,219.508 107.010,219.973 106.619 L 220.818 105.907 220.762 102.846 L 220.705 99.785 220.531 102.943 L 220.358 106.102 220.301 103.060 C 220.242 99.900,220.715 98.614,221.711 99.229 C 221.957 99.382,222.009 99.303,221.881 98.970 C 221.749 98.625,221.853 98.492,222.258 98.492 C 222.615 98.492,222.883 98.233,222.998 97.775 C 223.097 97.380,223.358 97.057,223.577 97.057 C 223.905 97.057,223.977 96.028,223.977 91.314 C 223.977 87.801,223.869 85.571,223.699 85.571 C 223.546 85.571,223.497 85.373,223.589 85.131 C 223.700 84.842,223.967 84.750,224.370 84.863 C 224.855 84.999,224.893 84.972,224.551 84.734 C 224.197 84.487,224.287 84.370,225.054 84.078 C 225.567 83.882,225.987 83.549,225.987 83.337 C 225.987 83.126,226.115 83.031,226.271 83.128 C 226.434 83.229,226.482 83.113,226.384 82.858 C 226.289 82.612,226.363 82.412,226.548 82.412 C 226.732 82.412,226.809 82.294,226.720 82.149 C 226.631 82.005,227.077 81.650,227.711 81.360 C 228.404 81.043,228.932 80.576,229.035 80.189 C 229.130 79.834,229.321 79.615,229.460 79.701 C 229.599 79.787,229.636 79.657,229.542 79.412 C 229.423 79.100,229.545 78.966,229.953 78.966 C 230.272 78.966,230.583 78.819,230.643 78.638 C 230.724 78.395,230.924 78.402,231.409 78.661 C 231.771 78.855,232.130 78.950,232.207 78.872 C 232.284 78.795,232.079 78.646,231.752 78.542 C 230.918 78.278,230.985 78.081,232.437 76.521 C 233.591 75.283,233.770 75.186,234.232 75.548 C 234.688 75.907,234.706 75.901,234.389 75.494 C 233.927 74.902,234.270 74.558,234.862 75.020 C 235.258 75.329,235.271 75.315,234.959 74.915 C 234.662 74.534,234.703 74.321,235.195 73.695 L 235.792 72.936 240.297 72.936 C 244.723 72.936,244.815 72.923,245.588 72.207 C 246.308 71.539,246.513 71.529,246.402 72.168 C 246.379 72.298,246.499 72.319,246.669 72.214 C 246.886 72.080,246.881 71.908,246.652 71.632 C 246.403 71.332,246.455 71.103,246.875 70.652 L 247.423 70.064 316.267 70.061 C 354.132 70.059,385.253 70.145,385.426 70.252 C 385.625 70.375,385.675 70.277,385.564 69.987 C 385.467 69.734,385.542 69.456,385.730 69.368 C 385.919 69.280,385.766 69.286,385.390 69.380 L 384.707 69.552 385.247 68.833 C 385.543 68.437,385.882 68.172,385.998 68.243 C 386.115 68.314,386.141 68.190,386.056 67.968 C 385.869 67.482,387.240 66.507,387.705 66.795 C 387.895 66.912,387.949 66.866,387.836 66.683 C 387.730 66.511,387.913 66.182,388.243 65.951 C 388.625 65.683,388.730 65.460,388.530 65.337 C 388.358 65.230,388.304 65.004,388.410 64.833 C 388.535 64.630,388.726 64.692,388.961 65.013 C 389.159 65.283,389.384 65.400,389.462 65.272 C 389.540 65.144,389.272 64.791,388.868 64.488 C 388.463 64.185,388.236 64.104,388.363 64.310 C 388.518 64.561,388.463 64.640,388.195 64.550 C 387.976 64.477,387.780 64.267,387.760 64.082 C 387.740 63.898,387.708 63.633,387.688 63.493 C 387.636 63.119,381.048 63.074,381.048 63.447 C 381.048 63.635,382.260 63.770,384.279 63.808 L 387.509 63.869 384.368 63.962 L 381.227 64.055 380.430 63.121 C 379.844 62.435,379.679 62.002,379.808 61.489 C 379.931 60.999,379.883 60.852,379.650 60.996 C 379.466 61.110,379.390 61.323,379.481 61.470 C 379.572 61.617,379.520 61.737,379.366 61.737 C 379.212 61.737,379.042 61.605,378.988 61.443 C 378.922 61.245,372.139 61.149,358.361 61.151 C 339.292 61.154,337.790 61.119,337.239 60.656 C 336.632 60.146,335.519 58.549,335.591 58.291 C 335.613 58.212,314.030 58.183,287.629 58.226 C 238.109 58.306,238.047 58.305,238.465 57.218 C 238.547 57.002,238.496 56.899,238.351 56.989 C 238.206 57.079,238.006 57.021,237.907 56.860 C 237.807 56.700,237.863 56.569,238.030 56.569 C 238.198 56.569,238.335 56.443,238.335 56.290 C 238.335 56.137,238.149 56.084,237.921 56.171 C 237.687 56.261,237.346 56.071,237.134 55.731 C 236.929 55.402,236.590 55.133,236.382 55.133 C 236.166 55.133,236.093 54.988,236.211 54.797 C 236.351 54.571,236.262 54.521,235.941 54.644 C 235.612 54.770,235.463 54.677,235.463 54.347 C 235.463 53.831,233.637 52.090,232.807 51.815 C 232.531 51.723,232.304 51.520,232.304 51.364 C 232.304 51.207,232.446 51.167,232.620 51.274 C 232.849 51.415,232.848 51.305,232.619 50.876 C 232.444 50.550,232.140 50.187,231.944 50.069 C 231.721 49.935,231.745 50.064,232.006 50.411 C 232.237 50.718,232.011 50.590,231.504 50.126 C 230.997 49.662,230.581 49.113,230.581 48.905 C 230.581 48.698,230.438 48.528,230.264 48.528 C 230.089 48.528,230.023 48.328,230.117 48.083 C 230.211 47.838,230.192 47.691,230.076 47.757 C 229.764 47.934,228.141 46.955,228.141 46.591 C 228.141 46.419,228.023 46.171,227.879 46.040 C 227.727 45.901,227.704 45.951,227.824 46.159 C 228.286 46.962,224.713 46.602,223.873 45.761 C 223.101 44.990,222.837 44.302,223.459 44.687 C 223.648 44.804,223.523 44.506,223.181 44.025 C 222.838 43.545,222.613 43.097,222.680 43.030 C 222.746 42.963,222.549 42.908,222.240 42.908 C 221.611 42.908,221.491 43.236,222.039 43.457 C 222.317 43.569,222.314 43.607,222.026 43.624 C 221.686 43.645,221.376 43.354,219.682 41.421 C 219.224 40.899,218.815 40.775,217.543 40.775 C 216.678 40.775,215.910 40.676,215.835 40.555 C 215.760 40.435,216.560 40.413,217.613 40.508 C 218.665 40.603,219.580 40.637,219.646 40.584 C 219.712 40.531,219.615 40.488,219.430 40.488 C 219.246 40.488,219.095 40.325,219.095 40.126 C 219.095 39.856,218.597 39.802,217.129 39.911 C 215.282 40.048,215.129 40.014,214.629 39.340 C 214.172 38.723,214.167 38.678,214.593 39.021 C 215.023 39.368,215.066 39.362,214.919 38.978 C 214.825 38.734,214.472 38.462,214.134 38.374 L 213.519 38.213 214.159 37.532 C 214.630 37.030,214.687 36.851,214.375 36.851 C 214.142 36.851,214.015 36.952,214.091 37.076 C 214.513 37.758,208.703 38.305,207.192 37.726 C 206.390 37.418,205.006 35.167,205.385 34.787 C 205.631 34.542,205.631 34.458,205.387 34.458 C 205.206 34.458,204.979 34.587,204.882 34.745 C 204.766 34.931,200.047 35.009,191.440 34.965 L 178.177 34.897 191.385 34.745 L 204.594 34.593 191.492 34.525 C 180.183 34.467,178.342 34.517,178.036 34.886 C 177.840 35.121,177.534 35.229,177.354 35.127 C 177.175 35.024,177.129 35.051,177.252 35.187 C 177.376 35.322,177.182 35.610,176.822 35.827 C 176.454 36.048,176.387 36.153,176.670 36.066 C 177.318 35.867,176.528 37.193,175.751 37.609 C 174.886 38.071,168.543 38.058,168.249 37.593 C 168.059 37.293,167.990 37.283,167.987 37.554 C 167.985 37.756,168.174 37.995,168.408 38.085 C 168.730 38.209,168.763 38.381,168.542 38.794 C 168.212 39.410,167.634 39.547,167.861 38.955 C 167.942 38.743,167.777 38.388,167.493 38.165 C 167.026 37.798,167.014 37.806,167.361 38.250 C 167.572 38.520,167.653 38.889,167.541 39.070 C 167.392 39.311,167.269 39.295,167.090 39.011 C 166.900 38.711,166.842 38.706,166.839 38.990 C 166.836 39.192,167.118 39.463,167.466 39.592 C 168.663 40.035,166.883 40.849,164.976 40.731 C 164.103 40.676,163.388 40.736,163.388 40.864 C 163.388 40.992,163.259 41.016,163.101 40.919 C 162.943 40.821,162.814 41.012,162.814 41.342 C 162.814 41.672,162.621 42.016,162.385 42.107 C 162.149 42.197,162.029 42.419,162.119 42.600 C 162.209 42.781,162.091 42.695,161.858 42.409 C 161.612 42.108,161.359 42.009,161.258 42.174 C 161.161 42.331,161.213 42.540,161.374 42.639 C 161.802 42.904,161.729 43.360,161.259 43.360 C 161.035 43.360,160.793 43.521,160.722 43.719 C 160.622 43.994,160.462 44.001,160.034 43.750 C 159.529 43.453,159.488 43.499,159.596 44.236 C 159.810 45.690,158.578 46.574,156.459 46.487 C 154.838 46.421,154.679 46.471,154.246 47.185 C 153.989 47.608,153.680 47.954,153.559 47.954 C 153.437 47.954,153.338 48.127,153.338 48.339 C 153.338 48.694,151.882 49.567,151.661 49.345 C 151.607 49.290,151.377 49.602,151.149 50.036 C 150.682 50.928,149.511 51.174,149.785 50.323 C 149.921 49.900,149.898 49.889,149.640 50.251 C 149.404 50.583,149.480 50.796,149.972 51.178 C 150.476 51.570,150.511 51.676,150.141 51.681 C 149.746 51.686,147.376 53.759,147.325 54.145 C 147.316 54.214,147.308 54.401,147.308 54.559 C 147.308 54.716,147.165 54.846,146.990 54.846 C 146.815 54.846,146.749 54.645,146.843 54.400 C 146.941 54.144,146.893 54.029,146.730 54.130 C 146.574 54.226,146.447 54.451,146.447 54.629 C 146.447 55.231,145.255 56.247,144.765 56.063 C 144.370 55.916,144.352 55.959,144.653 56.331 C 144.999 56.756,143.933 58.291,143.293 58.291 C 142.947 58.291,142.001 59.272,141.906 59.727 C 141.857 59.964,141.534 60.381,141.189 60.654 C 140.496 61.201,139.996 61.323,140.271 60.879 C 140.373 60.713,140.251 60.670,139.976 60.775 C 139.640 60.904,139.604 61.016,139.849 61.167 C 140.076 61.308,140.091 61.440,139.893 61.562 C 139.729 61.664,139.513 61.615,139.414 61.455 C 139.315 61.294,139.080 61.167,138.892 61.172 C 138.704 61.176,138.776 61.312,139.052 61.473 C 139.777 61.895,139.676 62.384,138.909 62.169 C 138.399 62.025,138.354 62.051,138.693 62.293 C 139.059 62.552,139.029 62.625,138.498 62.771 C 138.113 62.876,137.931 63.098,138.026 63.345 C 138.111 63.566,138.044 63.747,137.878 63.747 C 137.458 63.747,136.251 62.568,136.014 61.925 C 135.907 61.634,135.554 61.326,135.230 61.242 C 134.906 61.157,134.703 60.927,134.778 60.730 C 134.854 60.532,134.715 60.389,134.466 60.409 C 134.219 60.429,133.953 60.263,133.875 60.040 C 133.774 59.751,133.879 59.691,134.244 59.832 C 134.688 60.002,134.704 59.967,134.366 59.559 C 134.123 59.267,133.936 59.210,133.870 59.409 C 133.713 59.880,133.238 59.795,133.238 59.296 C 133.238 59.060,133.101 58.866,132.934 58.866 C 132.766 58.866,132.709 58.737,132.807 58.579 C 132.904 58.421,132.799 58.291,132.572 58.291 C 132.081 58.291,131.392 57.540,131.718 57.361 C 131.843 57.293,131.774 57.280,131.565 57.333 C 131.159 57.435,130.706 57.036,130.193 56.126 C 129.945 55.685,129.447 55.525,127.896 55.386 L 125.915 55.208 127.961 55.242 C 129.486 55.268,129.972 55.185,129.870 54.919 C 129.794 54.723,129.594 54.647,129.426 54.751 C 129.230 54.872,129.190 54.756,129.316 54.430 C 129.464 54.043,129.401 53.962,129.054 54.096 C 128.802 54.192,127.953 54.271,127.167 54.271 C 126.201 54.271,125.801 54.374,125.933 54.587 C 126.070 54.809,125.947 54.806,125.519 54.577 C 124.941 54.267,124.771 53.908,124.900 53.266 C 124.932 53.108,124.872 53.065,124.767 53.171 C 124.513 53.424,123.092 52.196,121.106 50.009 C 120.187 48.997,120.124 48.774,120.818 48.990 C 121.295 49.138,121.295 49.129,120.817 48.822 C 120.061 48.336,117.276 48.558,117.394 49.095 C 117.463 49.410,117.335 49.380,116.891 48.978 C 116.564 48.682,116.296 48.266,116.296 48.053 C 116.296 47.841,116.167 47.667,116.009 47.667 C 115.851 47.667,115.721 47.473,115.721 47.236 C 115.721 46.999,115.851 46.805,116.009 46.805 C 116.167 46.805,116.296 46.956,116.296 47.140 C 116.296 47.325,116.374 47.398,116.469 47.303 C 116.564 47.208,116.434 46.834,116.181 46.473 C 115.824 45.963,115.721 45.923,115.721 46.294 C 115.721 47.071,115.164 47.184,114.876 46.465 C 114.729 46.099,114.601 45.962,114.591 46.159 C 114.567 46.634,111.720 46.626,111.109 46.150 C 110.494 45.670,110.252 44.924,110.599 44.577 C 110.900 44.276,110.343 43.073,109.903 43.073 C 109.779 43.073,109.890 43.396,110.148 43.790 C 110.698 44.630,110.257 44.761,109.425 44.006 C 108.353 43.033,107.968 42.765,107.967 42.989 C 107.966 43.114,107.725 42.828,107.431 42.355 C 107.052 41.744,106.982 41.385,107.191 41.122 C 107.395 40.864,107.378 40.645,107.135 40.404 C 106.861 40.133,106.827 40.166,106.977 40.560 C 107.113 40.918,107.026 41.062,106.673 41.062 C 106.341 41.062,106.222 40.895,106.312 40.554 C 106.475 39.927,103.336 39.637,102.640 40.215 C 102.316 40.483,102.192 40.443,102.034 40.018 C 101.926 39.724,101.698 39.390,101.528 39.277 C 101.310 39.130,101.315 38.917,101.544 38.547 C 101.801 38.132,101.757 37.886,101.329 37.358 C 101.032 36.991,100.790 36.826,100.790 36.990 C 100.790 37.154,100.984 37.483,101.223 37.721 C 101.537 38.036,101.565 38.211,101.323 38.360 C 101.140 38.473,100.848 38.385,100.674 38.163 C 100.455 37.882,99.872 37.786,98.754 37.845 C 96.890 37.943,96.098 37.423,96.806 36.565 C 97.163 36.132,97.140 36.119,96.564 36.426 C 96.003 36.725,95.868 36.671,95.422 35.970 C 95.144 35.533,94.792 35.089,94.641 34.982 C 94.473 34.865,94.513 34.612,94.741 34.336 C 94.993 34.033,95.010 33.884,94.795 33.884 C 94.617 33.884,94.472 34.021,94.472 34.190 C 94.472 34.386,93.729 34.463,92.391 34.405 C 90.772 34.335,90.309 34.219,90.309 33.884 C 90.309 33.647,90.480 33.488,90.689 33.532 C 90.898 33.575,90.995 33.490,90.904 33.343 C 90.813 33.196,90.460 33.149,90.120 33.238 C 89.705 33.347,89.567 33.293,89.701 33.077 C 89.810 32.899,89.650 32.597,89.343 32.406 C 89.037 32.215,88.852 31.888,88.932 31.681 C 89.011 31.473,89.183 31.369,89.314 31.449 C 89.444 31.530,89.632 31.465,89.731 31.304 C 89.931 30.981,89.227 30.898,88.917 31.208 C 88.809 31.316,88.012 31.371,87.146 31.331 C 86.171 31.286,85.571 31.375,85.571 31.566 C 85.571 31.739,86.229 31.896,87.078 31.925 L 88.586 31.977 87.235 32.084 C 85.744 32.202,84.422 31.580,84.422 30.761 C 84.422 30.009,83.267 29.444,81.410 29.289 C 80.033 29.174,79.680 29.044,79.644 28.638 C 79.612 28.281,79.639 28.260,79.734 28.566 C 79.908 29.126,82.696 29.198,82.706 28.643 C 82.709 28.446,82.961 28.607,83.266 29.002 C 83.807 29.703,83.819 29.705,83.774 29.086 C 83.748 28.738,83.670 28.510,83.599 28.581 C 83.528 28.652,83.329 28.593,83.156 28.449 C 82.983 28.306,82.067 28.158,81.120 28.121 C 79.170 28.044,78.277 27.706,78.499 27.128 C 78.597 26.872,78.504 26.790,78.234 26.894 C 78.005 26.982,77.818 26.921,77.818 26.760 C 77.818 26.598,77.973 26.414,78.162 26.351 C 78.374 26.280,78.313 26.162,78.004 26.043 C 77.727 25.937,77.568 25.959,77.651 26.093 C 77.976 26.619,74.105 26.460,73.560 25.925 C 72.584 24.967,71.785 23.600,71.950 23.171 C 72.040 22.935,71.977 22.659,71.810 22.555 C 71.626 22.441,71.574 22.542,71.678 22.814 C 71.827 23.203,71.419 23.251,68.444 23.198 L 65.039 23.137 68.137 23.045 C 70.033 22.988,71.168 22.845,71.064 22.675 C 70.814 22.270,65.374 22.322,64.963 22.733 C 64.707 22.988,64.578 22.939,64.419 22.526 C 64.305 22.227,63.872 21.652,63.457 21.246 C 63.042 20.840,62.760 20.319,62.830 20.089 C 62.933 19.751,62.884 19.739,62.577 20.029 C 61.360 21.177,57.600 19.845,58.134 18.454 C 58.217 18.238,58.157 18.140,58.001 18.236 C 57.845 18.333,57.717 18.231,57.717 18.011 C 57.717 17.717,57.239 17.595,55.922 17.552 C 53.980 17.490,53.123 17.313,53.123 16.976 C 53.123 16.858,53.882 16.817,54.809 16.884 C 55.736 16.951,56.564 16.894,56.647 16.758 C 56.731 16.622,55.841 16.518,54.670 16.526 C 52.454 16.541,51.370 15.885,51.792 14.786 C 52.075 14.048,51.238 13.846,47.954 13.863 L 44.652 13.880 47.810 14.062 L 50.969 14.244 47.913 14.301 C 44.651 14.361,43.949 14.069,42.912 12.218 C 42.661 11.770,42.309 11.684,40.902 11.727 C 39.320 11.775,38.395 11.536,38.454 11.095 C 38.553 10.350,38.429 10.087,38.047 10.234 C 37.520 10.436,37.451 9.598,37.976 9.364 C 38.173 9.276,38.076 9.215,37.760 9.229 C 36.479 9.287,36.369 9.226,36.778 8.686 C 37.101 8.259,37.098 8.237,36.756 8.543 C 36.013 9.205,30.638 9.021,29.824 8.305 C 29.451 7.978,29.307 7.791,29.505 7.892 C 29.702 7.992,29.864 7.952,29.864 7.803 C 29.864 7.655,29.588 7.461,29.252 7.373 C 28.846 7.267,28.698 7.064,28.811 6.769 C 28.912 6.505,28.840 6.352,28.633 6.393 C 28.441 6.430,28.317 6.299,28.356 6.102 C 28.396 5.905,28.266 5.775,28.069 5.815 C 27.872 5.854,27.732 5.757,27.759 5.599 C 27.790 5.416,26.703 5.362,24.743 5.450 L 21.680 5.588 24.695 5.753 L 27.710 5.918 24.787 5.974 C 21.704 6.033,21.222 5.865,20.817 4.589 C 20.708 4.245,20.497 4.094,20.295 4.215 C 20.109 4.326,20.137 4.196,20.356 3.925 C 20.706 3.495,20.697 3.455,20.287 3.613 C 20.017 3.716,19.755 3.628,19.670 3.404 C 19.567 3.135,19.014 3.023,17.873 3.042 C 16.452 3.065,16.412 3.053,17.588 2.955 C 19.668 2.782,19.278 2.229,17.157 2.343 C 15.140 2.453,14.358 1.999,14.358 0.718 L 14.358 0.000 8.758 0.000 L 3.159 0.000 3.159 6.557 M14.932 0.701 C 14.932 1.086,15.038 1.467,15.167 1.547 C 15.296 1.627,15.346 1.312,15.278 0.846 C 15.127 -0.180,14.932 -0.262,14.932 0.701 M38.792 10.481 C 38.742 11.270,39.308 11.541,40.810 11.448 C 41.660 11.395,42.548 11.475,42.785 11.626 C 43.581 12.133,44.479 12.141,43.820 11.635 C 43.520 11.405,43.174 11.280,43.050 11.356 C 42.926 11.433,42.744 11.364,42.645 11.204 C 42.545 11.043,41.707 10.912,40.782 10.912 C 39.705 10.912,39.048 10.783,38.955 10.553 C 38.876 10.355,38.802 10.323,38.792 10.481 M0.718 13.783 L -0.144 14.002 0.629 14.036 C 1.054 14.055,1.482 13.941,1.579 13.783 C 1.677 13.625,1.717 13.511,1.668 13.530 C 1.619 13.549,1.192 13.663,0.718 13.783 M60.796 19.451 C 58.807 19.576,58.860 20.101,60.862 20.101 C 61.831 20.101,62.300 19.970,62.415 19.670 C 62.506 19.433,62.552 19.263,62.518 19.293 C 62.483 19.323,61.709 19.394,60.796 19.451 M73.569 25.485 C 73.748 25.700,74.568 25.844,75.613 25.844 C 77.875 25.844,77.422 25.351,75.041 25.222 C 73.649 25.146,73.334 25.202,73.569 25.485 M92.925 34.973 C 92.153 35.025,91.416 34.962,91.287 34.834 C 91.159 34.706,91.790 34.664,92.691 34.741 L 94.329 34.880 92.925 34.973 M100.057 37.025 C 99.907 37.174,99.139 37.344,98.349 37.404 L 96.913 37.513 98.386 37.565 C 99.395 37.600,99.970 37.481,100.215 37.186 C 100.608 36.713,100.492 36.595,100.057 37.025 M169.672 37.412 C 169.797 37.537,171.181 37.601,172.746 37.554 L 175.592 37.470 172.519 37.328 C 170.828 37.250,169.547 37.288,169.672 37.412 M208.686 37.541 C 209.515 37.599,210.872 37.599,211.701 37.541 C 212.531 37.483,211.852 37.436,210.194 37.436 C 208.536 37.436,207.857 37.483,208.686 37.541 M163.676 40.201 C 163.676 40.359,164.322 40.488,165.111 40.488 C 165.901 40.488,166.547 40.359,166.547 40.201 C 166.547 40.043,165.901 39.914,165.111 39.914 C 164.322 39.914,163.676 40.043,163.676 40.201 M105.317 40.693 C 104.886 40.759,104.111 40.760,103.595 40.696 C 103.078 40.632,103.431 40.579,104.379 40.577 C 105.327 40.576,105.749 40.628,105.317 40.693 M153.728 45.847 C 153.831 46.031,153.574 46.430,153.154 46.736 C 152.532 47.189,152.493 47.283,152.937 47.250 C 153.237 47.228,153.503 47.101,153.529 46.968 C 153.555 46.835,153.748 46.620,153.957 46.491 C 154.272 46.296,154.269 46.190,153.940 45.884 C 153.706 45.667,153.618 45.651,153.728 45.847 M239.196 57.574 C 239.196 57.955,244.700 58.004,287.006 58.004 C 329.313 58.004,334.817 57.955,334.817 57.574 C 334.817 57.192,329.313 57.143,287.006 57.143 C 244.700 57.143,239.196 57.192,239.196 57.574 M378.320 60.014 C 378.205 60.201,371.037 60.302,357.755 60.302 C 344.236 60.302,337.427 60.398,337.545 60.589 C 337.944 61.235,377.990 60.954,378.397 60.302 C 378.594 59.986,378.698 59.727,378.627 59.727 C 378.556 59.727,378.418 59.856,378.320 60.014 M0.000 64.322 C 0.000 64.480,0.323 64.609,0.718 64.609 C 1.113 64.609,1.436 64.480,1.436 64.322 C 1.436 64.164,1.113 64.034,0.718 64.034 C 0.323 64.034,0.000 64.164,0.000 64.322 M8.036 92.808 C 7.959 93.708,8.001 94.340,8.129 94.212 C 8.257 94.083,8.320 93.346,8.268 92.574 L 8.175 91.170 8.036 92.808 M11.020 99.928 C 11.020 101.744,11.067 102.487,11.124 101.579 C 11.181 100.671,11.181 99.185,11.124 98.277 C 11.067 97.369,11.020 98.112,11.020 99.928 M220.089 106.839 C 219.784 107.331,220.057 107.380,220.658 106.940 C 221.124 106.599,221.139 106.533,220.747 106.533 C 220.489 106.533,220.193 106.670,220.089 106.839 M218.033 110.266 C 218.033 111.134,218.087 111.490,218.153 111.055 C 218.218 110.621,218.218 109.910,218.153 109.476 C 218.087 109.042,218.033 109.397,218.033 110.266 M215.164 115.865 C 215.166 116.813,215.220 117.166,215.283 116.650 C 215.347 116.133,215.346 115.358,215.281 114.927 C 215.215 114.495,215.163 114.917,215.164 115.865 M194.401 147.882 C 194.401 148.672,194.530 149.318,194.688 149.318 C 194.846 149.318,194.975 148.672,194.975 147.882 C 194.975 147.093,194.846 146.447,194.688 146.447 C 194.530 146.447,194.401 147.093,194.401 147.882 M53.697 148.457 C 53.697 148.615,54.343 148.744,55.133 148.744 C 55.922 148.744,56.569 148.615,56.569 148.457 C 56.569 148.299,55.922 148.169,55.133 148.169 C 54.343 148.169,53.697 148.299,53.697 148.457 M71.879 156.784 C 71.879 157.810,71.932 158.230,71.995 157.717 C 72.059 157.204,72.059 156.364,71.995 155.851 C 71.932 155.337,71.879 155.757,71.879 156.784 M185.824 158.318 C 185.648 158.530,185.589 158.788,185.693 158.892 C 186.035 159.234,186.237 159.090,186.237 158.507 C 186.237 157.826,186.234 157.824,185.824 158.318 M69.495 159.009 C 69.498 159.394,69.556 159.422,69.742 159.129 C 69.934 158.825,70.024 158.849,70.175 159.242 C 70.280 159.514,70.445 159.658,70.543 159.560 C 70.752 159.351,70.110 158.507,69.742 158.507 C 69.604 158.507,69.492 158.733,69.495 159.009 M66.133 168.413 C 66.135 169.361,66.189 169.714,66.253 169.198 C 66.317 168.682,66.315 167.907,66.250 167.475 C 66.184 167.044,66.132 167.466,66.133 168.413 M60.100 179.756 C 60.100 180.625,60.154 180.980,60.220 180.546 C 60.286 180.111,60.286 179.401,60.220 178.966 C 60.154 178.532,60.100 178.887,60.100 179.756 M158.220 180.492 C 159.227 180.714,161.032 180.754,160.906 180.551 C 160.831 180.430,160.099 180.345,159.280 180.364 C 158.460 180.382,157.983 180.440,158.220 180.492 M57.143 187.061 C 57.143 189.083,57.031 190.380,56.856 190.380 C 56.698 190.380,56.569 190.511,56.569 190.670 C 56.569 190.842,56.802 190.814,57.143 190.601 C 57.782 190.202,58.036 184.294,57.430 183.920 C 57.245 183.805,57.143 184.922,57.143 187.061 M144.221 189.150 C 144.655 189.216,145.366 189.216,145.800 189.150 C 146.235 189.085,145.879 189.031,145.011 189.031 C 144.142 189.031,143.787 189.085,144.221 189.150 M138.822 199.594 C 138.571 200.000,138.996 200.411,139.830 200.572 C 140.195 200.642,140.401 200.607,140.288 200.494 C 140.174 200.380,139.963 200.271,139.818 200.251 C 139.673 200.232,139.430 200.199,139.277 200.179 C 139.124 200.160,139.073 199.950,139.164 199.713 C 139.354 199.216,139.108 199.131,138.822 199.594 M165.430 228.870 C 165.392 229.916,165.486 230.581,165.671 230.581 C 166.030 230.581,166.087 227.527,165.732 227.308 C 165.600 227.226,165.464 227.929,165.430 228.870 M42.785 242.194 C 42.785 251.540,42.887 256.741,43.073 256.856 C 43.263 256.973,43.360 252.073,43.360 242.372 C 43.360 232.789,43.260 227.710,43.073 227.710 C 42.885 227.710,42.785 232.729,42.785 242.194 M175.284 239.804 C 175.136 240.044,175.212 240.099,175.527 239.979 C 175.779 239.882,176.049 239.928,176.126 240.081 C 176.204 240.234,176.236 240.202,176.199 240.011 C 176.102 239.515,175.541 239.389,175.284 239.804 M171.545 251.080 C 171.461 251.299,171.436 252.042,171.488 252.731 C 171.581 253.944,171.589 253.931,171.722 252.333 C 171.861 250.657,171.820 250.363,171.545 251.080 M163.676 258.722 C 163.676 258.880,164.322 259.009,165.111 259.009 C 165.901 259.009,166.547 258.880,166.547 258.722 C 166.547 258.564,165.901 258.435,165.111 258.435 C 164.322 258.435,163.676 258.564,163.676 258.722 M45.530 263.232 C 45.435 263.482,45.424 263.754,45.507 263.836 C 45.589 263.919,45.657 263.845,45.657 263.673 C 45.657 263.500,45.883 263.313,46.159 263.257 C 46.619 263.165,46.621 263.140,46.183 262.967 C 45.881 262.848,45.640 262.946,45.530 263.232 M48.614 266.762 C 48.614 267.631,48.668 267.986,48.734 267.552 C 48.800 267.118,48.800 266.407,48.734 265.973 C 48.668 265.538,48.614 265.894,48.614 266.762 M153.183 269.366 C 153.079 269.534,153.071 269.750,153.166 269.844 C 153.261 269.939,153.338 269.873,153.338 269.698 C 153.338 269.523,153.600 269.430,153.920 269.492 C 154.240 269.553,154.426 269.481,154.334 269.332 C 154.108 268.966,153.417 268.986,153.183 269.366 M57.247 277.318 C 57.269 277.593,57.451 277.923,57.651 278.051 C 57.852 278.179,57.930 278.437,57.825 278.625 C 57.719 278.813,57.813 278.789,58.034 278.571 C 58.344 278.266,58.354 278.147,58.076 278.045 C 57.879 277.973,57.717 277.738,57.717 277.524 C 57.717 277.309,57.603 277.063,57.462 276.976 C 57.322 276.890,57.225 277.044,57.247 277.318 M89.200 285.626 C 88.830 285.996,89.017 287.150,89.447 287.150 C 89.712 287.150,89.878 286.881,89.878 286.449 C 89.878 285.729,89.526 285.301,89.200 285.626 "
              stroke="none" fill="#fcfcfc" fill-rule="evenodd"/>
        <path id="path1" d="" stroke="none" fill="#100fcfc" fill-rule="evenodd"/>
        <path id="path2" d="" stroke="none" fill="#100fcfc" fill-rule="evenodd"/>
        <path id="path3" d="" stroke="none" fill="#100fcfc" fill-rule="evenodd"/>
        <path id="path4" d="" stroke="none" fill="#100fcfc" fill-rule="evenodd"/>
    </g>
</svg>